<svg width="130" height="37" viewBox="0 0 130 37" fill="none" xmlns="http://www.w3.org/2000/svg">
<rect y="14.8" width="7.3846" height="7.39999" fill="#D8D8D8"/>
<rect x="22.1538" y="22.2" width="7.38461" height="7.39999" transform="rotate(180 22.1538 22.2)" fill="#D8D8D8"/>
<path d="M7.38469 14.7999L14.7693 7.3999V14.7999L7.38469 22.1999V14.7999Z" fill="#F6F6F6"/>
<path d="M14.7692 22.1999L7.38461 29.5999L7.38461 22.1999L14.7692 14.7999L14.7692 22.1999Z" fill="#BBBBBB"/>
<path d="M0 14.8L14.7692 0V7.39999L7.3846 14.8H0Z" fill="#BBBBBB"/>
<path d="M22.1538 22.2L7.3846 37L7.3846 29.6L14.7692 22.2L22.1538 22.2Z" fill="#F6F6F6"/>
<path d="M38.2369 26.4241C37.0739 26.4241 35.9467 26.2586 34.8554 25.9277C33.7785 25.5967 32.9241 25.1578 32.2923 24.6111L33.2615 22.4312C33.879 22.9204 34.6328 23.3233 35.5231 23.6398C36.4277 23.942 37.3323 24.0931 38.2369 24.0931C39.3569 24.0931 40.1897 23.9132 40.7354 23.5535C41.2954 23.1938 41.5754 22.7189 41.5754 22.129C41.5754 21.6973 41.4174 21.3448 41.1015 21.0714C40.8 20.7836 40.4123 20.5606 39.9385 20.4023C39.4646 20.244 38.8185 20.0642 38 19.8627C36.8513 19.5893 35.918 19.316 35.2 19.0426C34.4964 18.7692 33.8862 18.3447 33.3692 17.7691C32.8667 17.1792 32.6154 16.3878 32.6154 15.395C32.6154 14.5604 32.838 13.805 33.2831 13.1287C33.7426 12.4381 34.4246 11.8913 35.3292 11.4884C36.2482 11.0855 37.3682 10.8841 38.6892 10.8841C39.6082 10.8841 40.5128 10.9992 41.4031 11.2294C42.2933 11.4596 43.0615 11.7906 43.7077 12.2222L42.8246 14.4021C42.1641 14.0136 41.4749 13.7187 40.7569 13.5172C40.039 13.3158 39.3426 13.2151 38.6677 13.2151C37.5621 13.2151 36.7364 13.4021 36.1908 13.7762C35.6595 14.1503 35.3939 14.6468 35.3939 15.2655C35.3939 15.6971 35.5446 16.0497 35.8462 16.3231C36.1621 16.5965 36.5569 16.8123 37.0308 16.9706C37.5046 17.1288 38.1508 17.3087 38.9692 17.5101C40.0892 17.7691 41.0082 18.0425 41.7262 18.3303C42.4441 18.6037 43.0544 19.0282 43.5569 19.6037C44.0739 20.1793 44.3323 20.9563 44.3323 21.9347C44.3323 22.7693 44.1026 23.5247 43.6431 24.201C43.198 24.8773 42.5159 25.4168 41.5969 25.8197C40.678 26.2226 39.558 26.4241 38.2369 26.4241Z" fill="#F6F6F6"/>
<path d="M46.8503 14.6827H49.5426V26.2082H46.8503V14.6827ZM48.2072 12.7834C47.719 12.7834 47.3098 12.6323 46.9795 12.3301C46.6493 12.0136 46.4841 11.6251 46.4841 11.1646C46.4841 10.7042 46.6493 10.3229 46.9795 10.0207C47.3098 9.70418 47.719 9.5459 48.2072 9.5459C48.6954 9.5459 49.1047 9.69698 49.4349 9.99915C49.7652 10.2869 49.9303 10.6538 49.9303 11.0999C49.9303 11.5747 49.7652 11.9776 49.4349 12.3086C49.119 12.6251 48.7098 12.7834 48.2072 12.7834Z" fill="#F6F6F6"/>
<path d="M56.6301 26.3593C55.6968 26.3593 54.785 26.237 53.8947 25.9924C53.0045 25.7478 52.2937 25.4384 51.7624 25.0643L52.7963 23.0139C53.3132 23.3592 53.9306 23.6398 54.6486 23.8556C55.3809 24.0571 56.0988 24.1578 56.8024 24.1578C58.4106 24.1578 59.2147 23.7333 59.2147 22.8844C59.2147 22.4815 59.0065 22.2009 58.5901 22.0427C58.188 21.8844 57.5347 21.7333 56.6301 21.5894C55.6824 21.4455 54.907 21.28 54.3039 21.093C53.7152 20.9059 53.1983 20.5822 52.7532 20.1217C52.3224 19.6469 52.107 18.9922 52.107 18.1576C52.107 17.0641 52.5593 16.1936 53.4639 15.5461C54.3829 14.8842 55.6178 14.5532 57.1686 14.5532C57.9583 14.5532 58.748 14.6468 59.5378 14.8338C60.3275 15.0065 60.9737 15.2439 61.4763 15.5461L60.4424 17.5965C59.466 17.0209 58.3675 16.7331 57.147 16.7331C56.3573 16.7331 55.7542 16.8555 55.3378 17.1001C54.9357 17.3303 54.7347 17.6396 54.7347 18.0281C54.7347 18.4598 54.9501 18.7692 55.3809 18.9562C55.826 19.1289 56.508 19.2944 57.427 19.4526C58.346 19.5965 59.0998 19.762 59.6886 19.9491C60.2773 20.1361 60.7798 20.4527 61.1963 20.8987C61.627 21.3448 61.8424 21.9779 61.8424 22.7981C61.8424 23.8772 61.3757 24.7406 60.4424 25.3881C59.5091 26.0356 58.2383 26.3593 56.6301 26.3593Z" fill="#F6F6F6"/>
<path d="M74.7199 14.6827L69.3353 27.1363C68.8327 28.3882 68.2224 29.2659 67.5045 29.7695C66.7865 30.2875 65.9178 30.5465 64.8983 30.5465C64.324 30.5465 63.7568 30.453 63.1968 30.2659C62.6368 30.0788 62.1773 29.8198 61.8183 29.4889L62.8953 27.5032C63.1537 27.7478 63.4553 27.9421 63.7999 28.086C64.1589 28.2299 64.5178 28.3018 64.8768 28.3018C65.3507 28.3018 65.7383 28.1795 66.0399 27.9349C66.3558 27.6903 66.643 27.2802 66.9014 26.7047L67.0953 26.2514L62.0768 14.6827H64.8768L68.4953 23.2081L72.1353 14.6827H74.7199Z" fill="#F6F6F6"/>
<path d="M82.778 14.5532C83.898 14.5532 84.8959 14.7978 85.7718 15.2871C86.6621 15.7763 87.3585 16.467 87.861 17.3591C88.3636 18.2512 88.6149 19.28 88.6149 20.4455C88.6149 21.611 88.3636 22.647 87.861 23.5535C87.3585 24.4456 86.6621 25.1363 85.7718 25.6255C84.8959 26.1147 83.898 26.3593 82.778 26.3593C81.2272 26.3593 79.9995 25.8413 79.0949 24.8053V30.3954H76.4026V14.6827H78.9656V16.1936C79.4108 15.6468 79.9564 15.2367 80.6026 14.9633C81.2631 14.6899 81.9882 14.5532 82.778 14.5532ZM82.4764 24.0499C83.4672 24.0499 84.2785 23.719 84.9103 23.0571C85.5564 22.3952 85.8795 21.5246 85.8795 20.4455C85.8795 19.3663 85.5564 18.4958 84.9103 17.8339C84.2785 17.172 83.4672 16.8411 82.4764 16.8411C81.8303 16.8411 81.2487 16.9921 80.7318 17.2943C80.2149 17.5821 79.8056 17.9994 79.5041 18.5461C79.2026 19.0929 79.0518 19.726 79.0518 20.4455C79.0518 21.1649 79.2026 21.798 79.5041 22.3448C79.8056 22.8916 80.2149 23.3161 80.7318 23.6182C81.2487 23.906 81.8303 24.0499 82.4764 24.0499Z" fill="#F6F6F6"/>
<path d="M97.6943 14.5532C99.1446 14.5532 100.308 14.9777 101.184 15.8266C102.059 16.6756 102.497 17.9346 102.497 19.6037V26.2082H99.8051V19.9491C99.8051 18.9418 99.5682 18.1864 99.0943 17.6828C98.6205 17.1648 97.9456 16.9058 97.0697 16.9058C96.079 16.9058 95.2964 17.208 94.722 17.8123C94.1477 18.4023 93.8605 19.2584 93.8605 20.3807V26.2082H91.1682V10.1934H93.8605V16.0209C94.3056 15.5461 94.8513 15.1863 95.4974 14.9417C96.1579 14.6827 96.8902 14.5532 97.6943 14.5532Z" fill="#F6F6F6"/>
<path d="M117.048 14.6827V26.2082H114.485V24.7406C114.054 25.2586 113.516 25.6615 112.87 25.9492C112.224 26.2226 111.527 26.3593 110.78 26.3593C109.244 26.3593 108.031 25.9348 107.14 25.0859C106.265 24.2226 105.827 22.9491 105.827 21.2656V14.6827H108.519V20.8987C108.519 21.9347 108.749 22.7117 109.208 23.2297C109.682 23.7333 110.35 23.9851 111.211 23.9851C112.173 23.9851 112.934 23.6902 113.494 23.1002C114.069 22.4959 114.356 21.6326 114.356 20.5102V14.6827H117.048Z" fill="#F6F6F6"/>
<path d="M124.127 26.3593C123.194 26.3593 122.282 26.237 121.392 25.9924C120.501 25.7478 119.791 25.4384 119.259 25.0643L120.293 23.0139C120.81 23.3592 121.428 23.6398 122.146 23.8556C122.878 24.0571 123.596 24.1578 124.299 24.1578C125.908 24.1578 126.712 23.7333 126.712 22.8844C126.712 22.4815 126.503 22.2009 126.087 22.0427C125.685 21.8844 125.032 21.7333 124.127 21.5894C123.179 21.4455 122.404 21.28 121.801 21.093C121.212 20.9059 120.695 20.5822 120.25 20.1217C119.819 19.6469 119.604 18.9922 119.604 18.1576C119.604 17.0641 120.056 16.1936 120.961 15.5461C121.88 14.8842 123.115 14.5532 124.666 14.5532C125.455 14.5532 126.245 14.6468 127.035 14.8338C127.825 15.0065 128.471 15.2439 128.973 15.5461L127.939 17.5965C126.963 17.0209 125.865 16.7331 124.644 16.7331C123.854 16.7331 123.251 16.8555 122.835 17.1001C122.433 17.3303 122.232 17.6396 122.232 18.0281C122.232 18.4598 122.447 18.7692 122.878 18.9562C123.323 19.1289 124.005 19.2944 124.924 19.4526C125.843 19.5965 126.597 19.762 127.186 19.9491C127.774 20.1361 128.277 20.4527 128.693 20.8987C129.124 21.3448 129.339 21.9779 129.339 22.7981C129.339 23.8772 128.873 24.7406 127.939 25.3881C127.006 26.0356 125.735 26.3593 124.127 26.3593Z" fill="#F6F6F6"/>
</svg>
