<svg width="154" height="38" viewBox="0 0 154 38" fill="none" xmlns="http://www.w3.org/2000/svg">
<path d="M26.895 19C24.0734 22.144 19.9731 24.1225 15.4094 24.1225C10.8456 24.1225 6.74528 22.1439 3.92372 19C6.74528 15.856 10.8456 13.8774 15.4094 13.8774C19.9731 13.8774 24.0734 15.856 26.895 19Z" fill="#FBFBFB"/>
<path fill-rule="evenodd" clip-rule="evenodd" d="M0 29.2451C0 20.7578 6.89899 13.8774 15.4093 13.8774C10.8456 13.8774 6.74528 15.856 3.92373 19C6.74528 22.1439 10.8456 24.1225 15.4094 24.1225C19.9731 24.1225 24.0734 22.144 26.895 19C29.335 21.7188 30.8187 25.3092 30.8187 29.2451V35.0506C30.8187 35.8051 30.2054 36.4167 29.4489 36.4167H1.36972C0.613244 36.4167 0 35.8051 0 35.0506V29.2451ZM26.895 19C26.895 19 26.895 19 26.895 19V19Z" fill="#D8D8D8"/>
<path fill-rule="evenodd" clip-rule="evenodd" d="M9.62947 23.0049C7.42923 22.1164 5.48156 20.7358 3.92373 18.9999C6.74528 15.856 10.8456 13.8774 15.4094 13.8774C19.9731 13.8774 24.0734 15.856 26.895 18.9999C26.895 18.9999 26.895 18.9999 26.895 18.9999C29.335 16.2811 30.8187 12.6907 30.8187 8.75482V2.94927C30.8187 2.19484 30.2054 1.58325 29.4489 1.58325L1.36972 1.58325C0.613245 1.58325 5.75048e-07 2.19484 5.08915e-07 2.94926L0 8.75482C-1.02358e-06 15.2037 3.983 20.7248 9.62947 23.0049Z" fill="#BBBBBB"/>
<path d="M54.8876 11.4444V26.9168H51.7759V20.3333H45.13V26.9168H42.0183V11.4444H45.13V17.8063H51.7759V11.4444H54.8876Z" fill="#F6F6F6"/>
<path d="M63.4182 27.1163C62.2328 27.1163 61.1659 26.8577 60.2175 26.3404C59.2692 25.8084 58.5209 25.0622 57.9726 24.1016C57.4392 23.141 57.1725 22.0327 57.1725 20.7766C57.1725 19.5205 57.4466 18.4122 57.9948 17.4516C58.5579 16.491 59.321 15.7522 60.2842 15.2349C61.2474 14.7029 62.3217 14.4369 63.5071 14.4369C64.6925 14.4369 65.7668 14.7029 66.73 15.2349C67.6931 15.7522 68.4488 16.491 68.9971 17.4516C69.5602 18.4122 69.8417 19.5205 69.8417 20.7766C69.8417 22.0327 69.5528 23.141 68.9749 24.1016C68.4118 25.0622 67.6413 25.8084 66.6633 26.3404C65.7001 26.8577 64.6184 27.1163 63.4182 27.1163ZM63.4182 24.4119C63.9813 24.4119 64.5073 24.2789 64.9963 24.0129C65.5001 23.7322 65.9002 23.3184 66.1965 22.7716C66.4929 22.2248 66.6411 21.5598 66.6411 20.7766C66.6411 19.6092 66.3299 18.7151 65.7075 18.0944C65.1 17.459 64.3517 17.1413 63.4626 17.1413C62.5736 17.1413 61.8253 17.459 61.2177 18.0944C60.625 18.7151 60.3287 19.6092 60.3287 20.7766C60.3287 21.944 60.6176 22.8455 61.1955 23.4809C61.7882 24.1016 62.5291 24.4119 63.4182 24.4119Z" fill="#F6F6F6"/>
<path d="M83.7489 14.6364V26.9168H80.6149V25.3651C80.2149 25.8971 79.6888 26.3183 79.0368 26.6286C78.3997 26.9242 77.7032 27.0719 76.9475 27.0719C75.9844 27.0719 75.1323 26.8724 74.3914 26.4734C73.6506 26.0597 73.0652 25.4612 72.6355 24.6779C72.2206 23.8799 72.0132 22.9342 72.0132 21.8406V14.6364H75.1249V21.3973C75.1249 22.3726 75.3694 23.1263 75.8584 23.6583C76.3474 24.1755 77.0142 24.4341 77.8588 24.4341C78.7183 24.4341 79.3925 24.1755 79.8815 23.6583C80.3705 23.1263 80.6149 22.3726 80.6149 21.3973V14.6364H83.7489Z" fill="#F6F6F6"/>
<path d="M89.9309 16.5428C90.331 15.8925 90.8496 15.3827 91.4868 15.0133C92.1388 14.6438 92.8797 14.4591 93.7095 14.4591V17.7176H92.8871C91.9091 17.7176 91.1682 17.9467 90.6644 18.4048C90.1754 18.8629 89.9309 19.6609 89.9309 20.7988V26.9168H86.8192V14.6364H89.9309V16.5428Z" fill="#F6F6F6"/>
<path d="M100.629 14.4369C101.547 14.4369 102.355 14.6217 103.051 14.9911C103.748 15.3458 104.296 15.8113 104.696 16.3876V14.6364H107.83V27.0054C107.83 28.1433 107.6 29.1556 107.141 30.0423C106.682 30.9437 105.993 31.653 105.074 32.1703C104.155 32.7023 103.044 32.9683 101.74 32.9683C99.9914 32.9683 98.5541 32.5619 97.428 31.7491C96.3166 30.9363 95.6869 29.828 95.5387 28.4241H98.6282C98.7912 28.9857 99.1394 29.429 99.6729 29.7541C100.221 30.094 100.881 30.2639 101.651 30.2639C102.555 30.2639 103.288 29.9905 103.851 29.4438C104.415 28.9118 104.696 28.099 104.696 27.0054V25.0991C104.296 25.6754 103.74 26.1557 103.029 26.5399C102.333 26.9242 101.533 27.1163 100.629 27.1163C99.5914 27.1163 98.643 26.8503 97.7836 26.3183C96.9241 25.7863 96.2425 25.04 95.7387 24.0794C95.2497 23.1041 95.0052 21.9884 95.0052 20.7323C95.0052 19.4909 95.2497 18.39 95.7387 17.4294C96.2425 16.4689 96.9167 15.73 97.7614 15.2128C98.6208 14.6955 99.5765 14.4369 100.629 14.4369ZM104.696 20.7766C104.696 20.0229 104.548 19.3801 104.252 18.8481C103.955 18.3013 103.555 17.8875 103.051 17.6068C102.548 17.3112 102.007 17.1634 101.429 17.1634C100.851 17.1634 100.317 17.3038 99.8284 17.5846C99.3395 17.8654 98.9394 18.2792 98.6282 18.8259C98.3318 19.3579 98.1837 19.9934 98.1837 20.7323C98.1837 21.4712 98.3318 22.1214 98.6282 22.6829C98.9394 23.2297 99.3395 23.6509 99.8284 23.9464C100.332 24.242 100.866 24.3898 101.429 24.3898C102.007 24.3898 102.548 24.2494 103.051 23.9686C103.555 23.673 103.955 23.2593 104.252 22.7273C104.548 22.1805 104.696 21.5303 104.696 20.7766Z" fill="#F6F6F6"/>
<path d="M113.981 10.5134V26.9168H110.869V10.5134H113.981Z" fill="#F6F6F6"/>
<path d="M116.255 20.7323C116.255 19.4909 116.5 18.39 116.989 17.4294C117.493 16.4689 118.167 15.73 119.011 15.2128C119.871 14.6955 120.827 14.4369 121.879 14.4369C122.797 14.4369 123.598 14.6217 124.279 14.9911C124.976 15.3605 125.531 15.826 125.946 16.3876V14.6364H129.08V26.9168H125.946V25.1213C125.546 25.6976 124.99 26.1779 124.279 26.5621C123.583 26.9315 122.775 27.1163 121.856 27.1163C120.819 27.1163 119.871 26.8503 119.011 26.3183C118.167 25.7863 117.493 25.04 116.989 24.0794C116.5 23.1041 116.255 21.9884 116.255 20.7323ZM125.946 20.7766C125.946 20.0229 125.798 19.3801 125.502 18.8481C125.205 18.3013 124.805 17.8875 124.301 17.6068C123.798 17.3112 123.257 17.1634 122.679 17.1634C122.101 17.1634 121.567 17.3038 121.078 17.5846C120.589 17.8654 120.189 18.2792 119.878 18.8259C119.582 19.3579 119.434 19.9934 119.434 20.7323C119.434 21.4712 119.582 22.1214 119.878 22.6829C120.189 23.2297 120.589 23.6509 121.078 23.9464C121.582 24.242 122.116 24.3898 122.679 24.3898C123.257 24.3898 123.798 24.2494 124.301 23.9686C124.805 23.673 125.205 23.2593 125.502 22.7273C125.798 22.1805 125.946 21.5303 125.946 20.7766Z" fill="#F6F6F6"/>
<path d="M136.831 27.1163C135.824 27.1163 134.92 26.9389 134.12 26.5843C133.32 26.2148 132.682 25.7198 132.208 25.0991C131.749 24.4784 131.497 23.7913 131.452 23.0376H134.586C134.646 23.5105 134.875 23.9021 135.275 24.2124C135.69 24.5228 136.202 24.6779 136.809 24.6779C137.402 24.6779 137.861 24.5597 138.187 24.3233C138.528 24.0868 138.698 23.7839 138.698 23.4144C138.698 23.0154 138.491 22.7199 138.076 22.5278C137.676 22.3209 137.031 22.0992 136.142 21.8628C135.224 21.6411 134.468 21.412 133.875 21.1756C133.297 20.9392 132.793 20.5771 132.364 20.0894C131.949 19.6018 131.741 18.9442 131.741 18.1166C131.741 17.4368 131.934 16.8162 132.319 16.2546C132.719 15.693 133.282 15.2497 134.009 14.9246C134.749 14.5995 135.616 14.4369 136.609 14.4369C138.076 14.4369 139.247 14.8064 140.121 15.5453C140.995 16.2694 141.477 17.2521 141.566 18.4934H138.587C138.543 18.0058 138.335 17.6215 137.965 17.3408C137.609 17.0452 137.128 16.8974 136.52 16.8974C135.957 16.8974 135.52 17.0009 135.209 17.2078C134.912 17.4146 134.764 17.7028 134.764 18.0723C134.764 18.486 134.972 18.8038 135.387 19.0254C135.802 19.2323 136.446 19.4466 137.32 19.6683C138.209 19.8899 138.943 20.119 139.521 20.3554C140.099 20.5919 140.595 20.9613 141.01 21.4638C141.44 21.9514 141.662 22.6017 141.677 23.4144C141.677 24.1238 141.477 24.7592 141.077 25.3208C140.691 25.8823 140.128 26.3257 139.387 26.6508C138.661 26.9611 137.809 27.1163 136.831 27.1163Z" fill="#F6F6F6"/>
<path d="M148.943 27.1163C147.936 27.1163 147.032 26.9389 146.232 26.5843C145.431 26.2148 144.794 25.7198 144.32 25.0991C143.861 24.4784 143.609 23.7913 143.564 23.0376H146.698C146.758 23.5105 146.987 23.9021 147.387 24.2124C147.802 24.5228 148.313 24.6779 148.921 24.6779C149.514 24.6779 149.973 24.5597 150.299 24.3233C150.64 24.0868 150.81 23.7839 150.81 23.4144C150.81 23.0154 150.603 22.7199 150.188 22.5278C149.788 22.3209 149.143 22.0992 148.254 21.8628C147.335 21.6411 146.58 21.412 145.987 21.1756C145.409 20.9392 144.905 20.5771 144.476 20.0894C144.061 19.6018 143.853 18.9442 143.853 18.1166C143.853 17.4368 144.046 16.8162 144.431 16.2546C144.831 15.693 145.394 15.2497 146.12 14.9246C146.861 14.5995 147.728 14.4369 148.721 14.4369C150.188 14.4369 151.359 14.8064 152.233 15.5453C153.107 16.2694 153.589 17.2521 153.678 18.4934H150.699C150.655 18.0058 150.447 17.6215 150.077 17.3408C149.721 17.0452 149.24 16.8974 148.632 16.8974C148.069 16.8974 147.632 17.0009 147.321 17.2078C147.024 17.4146 146.876 17.7028 146.876 18.0723C146.876 18.486 147.084 18.8038 147.498 19.0254C147.913 19.2323 148.558 19.4466 149.432 19.6683C150.321 19.8899 151.055 20.119 151.633 20.3554C152.211 20.5919 152.707 20.9613 153.122 21.4638C153.552 21.9514 153.774 22.6017 153.789 23.4144C153.789 24.1238 153.589 24.7592 153.189 25.3208C152.803 25.8823 152.24 26.3257 151.499 26.6508C150.773 26.9611 149.921 27.1163 148.943 27.1163Z" fill="#F6F6F6"/>
</svg>
