<svg width="116" height="38" viewBox="0 0 116 38" fill="none" xmlns="http://www.w3.org/2000/svg">
<path d="M10.5493 17.6684C11.2026 15.2394 13.7084 12.7426 16.1462 12.0916L31.3446 8.03322C33.7824 7.38227 35.229 8.82369 34.5757 11.2527L30.5027 26.3965C29.8494 28.8256 27.3435 31.3224 24.9057 31.9734L9.70738 36.0317C7.26957 36.6827 5.82295 35.2413 6.47626 32.8122L10.5493 17.6684Z" fill="#F8F8F8"/>
<path d="M4.45637 11.5974C5.10967 9.16835 7.61551 6.67151 10.0533 6.02055L25.2517 1.96218C27.6895 1.31122 29.1361 2.75264 28.4828 5.18169L24.4098 20.3255C23.7565 22.7545 21.2507 25.2513 18.8129 25.9023L3.61448 29.9607C1.17668 30.6116 -0.269942 29.1702 0.383363 26.7412L4.45637 11.5974Z" fill="#D8D8D8"/>
<path d="M48.8822 23.9187H53.8654V26.8447H45.078V11.2837H48.8822V23.9187Z" fill="#F6F6F6"/>
<path d="M54.4786 20.638C54.4786 19.3671 54.7159 18.2514 55.1905 17.2909C55.6799 16.3303 56.3399 15.5914 57.1704 15.0742C58.0009 14.557 58.9279 14.2984 59.9512 14.2984C60.8263 14.2984 61.5901 14.4757 62.2426 14.8304C62.91 15.185 63.4217 15.6505 63.7776 16.2269V14.4757H67.5818V26.8447H63.7776V25.0935C63.4069 25.6699 62.8878 26.1354 62.2204 26.49C61.5678 26.8447 60.804 27.022 59.929 27.022C58.9205 27.022 58.0009 26.7634 57.1704 26.2462C56.3399 25.7142 55.6799 24.9679 55.1905 24.0074C54.7159 23.032 54.4786 21.9089 54.4786 20.638ZM63.7776 20.6602C63.7776 19.7144 63.5107 18.9681 62.9768 18.4214C62.4577 17.8746 61.8199 17.6012 61.0636 17.6012C60.3072 17.6012 59.662 17.8746 59.1281 18.4214C58.609 18.9534 58.3495 19.6922 58.3495 20.638C58.3495 21.5838 58.609 22.3375 59.1281 22.899C59.662 23.4458 60.3072 23.7192 61.0636 23.7192C61.8199 23.7192 62.4577 23.4458 62.9768 22.899C63.5107 22.3522 63.7776 21.606 63.7776 20.6602Z" fill="#F6F6F6"/>
<path d="M82.5696 14.4757L74.7833 32.7189H70.6899L73.5375 26.4235L68.4875 14.4757H72.7366L75.6064 22.2119L78.4539 14.4757H82.5696Z" fill="#F6F6F6"/>
<path d="M95.202 20.4607C95.202 20.8154 95.1797 21.1848 95.1352 21.569H86.5258C86.5851 22.3375 86.8298 22.9286 87.2599 23.3424C87.7049 23.7414 88.2462 23.9409 88.8839 23.9409C89.8331 23.9409 90.4931 23.5419 90.8639 22.7439H94.9128C94.7051 23.5566 94.3269 24.2881 93.7782 24.9384C93.2443 25.5886 92.5695 26.0984 91.7537 26.4679C90.938 26.8373 90.0259 27.022 89.0174 27.022C87.8013 27.022 86.7186 26.7634 85.7694 26.2462C84.8202 25.729 84.0787 24.9901 83.5448 24.0295C83.0108 23.069 82.7439 21.9459 82.7439 20.6602C82.7439 19.3745 83.0034 18.2514 83.5225 17.2909C84.0564 16.3303 84.798 15.5914 85.7472 15.0742C86.6964 14.557 87.7864 14.2984 89.0174 14.2984C90.2187 14.2984 91.2866 14.5496 92.2209 15.052C93.1553 15.5545 93.882 16.2712 94.4011 17.2022C94.935 18.1332 95.202 19.2194 95.202 20.4607ZM91.3088 19.4632C91.3088 18.813 91.0863 18.2957 90.6414 17.9115C90.1965 17.5273 89.6403 17.3352 88.9729 17.3352C88.3352 17.3352 87.7939 17.5199 87.3489 17.8894C86.9188 18.2588 86.6519 18.7834 86.548 19.4632H91.3088Z" fill="#F6F6F6"/>
<path d="M100.568 16.5372C101.013 15.8574 101.569 15.3254 102.237 14.9412C102.904 14.5422 103.646 14.3427 104.461 14.3427V18.3549H103.416C102.466 18.3549 101.755 18.5617 101.28 18.9755C100.805 19.3745 100.568 20.0839 100.568 21.1035V26.8447H96.7639V14.4757H100.568V16.5372Z" fill="#F6F6F6"/>
<path d="M110.885 27.022C109.802 27.022 108.838 26.8373 107.993 26.4679C107.147 26.0984 106.48 25.596 105.99 24.9605C105.501 24.3103 105.227 23.5862 105.167 22.7882H108.927C108.971 23.2167 109.172 23.564 109.528 23.83C109.883 24.096 110.321 24.229 110.84 24.229C111.315 24.229 111.678 24.1404 111.93 23.963C112.197 23.7709 112.331 23.5271 112.331 23.2315C112.331 22.8769 112.145 22.6182 111.774 22.4557C111.404 22.2784 110.803 22.0862 109.972 21.8794C109.083 21.6725 108.341 21.4582 107.748 21.2365C107.155 21.0001 106.643 20.638 106.213 20.1504C105.783 19.6479 105.568 18.9755 105.568 18.1332C105.568 17.4239 105.76 16.781 106.146 16.2047C106.547 15.6136 107.125 15.1481 107.881 14.8082C108.653 14.4683 109.565 14.2984 110.618 14.2984C112.175 14.2984 113.398 14.6826 114.288 15.451C115.193 16.2195 115.712 17.2391 115.846 18.51H112.331C112.271 18.0815 112.078 17.7416 111.752 17.4904C111.441 17.2391 111.025 17.1135 110.506 17.1135C110.061 17.1135 109.72 17.2022 109.483 17.3795C109.246 17.5421 109.127 17.7711 109.127 18.0667C109.127 18.4214 109.312 18.6874 109.683 18.8647C110.069 19.042 110.662 19.2194 111.463 19.3967C112.383 19.6331 113.131 19.8696 113.71 20.106C114.288 20.3277 114.793 20.6971 115.223 21.2144C115.668 21.7168 115.897 22.3966 115.912 23.2537C115.912 23.9778 115.705 24.628 115.289 25.2044C114.889 25.7659 114.303 26.2092 113.532 26.5344C112.776 26.8595 111.893 27.022 110.885 27.022Z" fill="#F6F6F6"/>
</svg>
