<svg width="160" height="38" viewBox="0 0 160 38" fill="none" xmlns="http://www.w3.org/2000/svg">
<path d="M18.9774 20.5833C18.5749 15.707 14.4877 11.875 9.50495 11.875C4.25551 11.875 0 16.1283 0 21.375C0 26.6217 4.25551 30.875 9.50495 30.875H23.7624V20.5833H18.9774Z" fill="#F6F6F6"/>
<ellipse cx="22.9703" cy="19" rx="11.8812" ry="11.875" fill="#BBBBBB"/>
<path d="M41.8978 19.1584C41.8978 17.5772 42.2009 16.1955 42.8071 15.0133C43.4281 13.8163 44.3079 12.8926 45.4463 12.2424C46.5996 11.5922 47.9525 11.2671 49.505 11.2671C50.7174 11.2671 51.8041 11.5035 52.7652 11.9764C53.7262 12.4493 54.5024 13.1143 55.0939 13.9714C55.6853 14.8285 56.0401 15.8186 56.1584 16.9418H52.8317C52.6395 16.0551 52.2329 15.3605 51.6119 14.8581C51.0057 14.3409 50.2442 14.0823 49.3275 14.0823C48.0856 14.0823 47.1023 14.5478 46.3778 15.4788C45.6533 16.4098 45.2911 17.6363 45.2911 19.1584C45.2911 20.6658 45.6533 21.8923 46.3778 22.8381C47.1023 23.7691 48.0856 24.2346 49.3275 24.2346C50.2442 24.2346 51.0057 23.9834 51.6119 23.4809C52.2329 22.9637 52.6395 22.2618 52.8317 21.3751H56.1584C56.0401 22.4982 55.6853 23.4883 55.0939 24.3454C54.5024 25.2025 53.7262 25.8675 52.7652 26.3404C51.8041 26.8133 50.7174 27.0498 49.505 27.0498C47.9525 27.0498 46.5996 26.7246 45.4463 26.0744C44.3079 25.4242 43.4281 24.508 42.8071 23.3258C42.2009 22.1288 41.8978 20.7396 41.8978 19.1584Z" fill="#F6F6F6"/>
<path d="M56.9601 11.4001H60.0873V26.9168H56.9601V11.4001Z" fill="#F6F6F6"/>
<path d="M66.946 27.0498C65.7484 27.0498 64.6913 26.8133 63.7746 26.3404C62.8726 25.8528 62.1703 25.1656 61.6676 24.2789C61.1797 23.3923 60.9357 22.3726 60.9357 21.2199C60.9357 20.0673 61.1797 19.0476 61.6676 18.1609C62.1703 17.2743 62.8726 16.5945 63.7746 16.1216C64.6913 15.6339 65.7484 15.3901 66.946 15.3901C68.1437 15.3901 69.1934 15.6339 70.0954 16.1216C71.0121 16.5945 71.7144 17.2743 72.2023 18.1609C72.705 19.0476 72.9563 20.0673 72.9563 21.2199C72.9563 22.3874 72.705 23.4144 72.2023 24.3011C71.7144 25.173 71.0121 25.8528 70.0954 26.3404C69.1934 26.8133 68.1437 27.0498 66.946 27.0498ZM66.946 24.5006C67.8184 24.5006 68.5059 24.1976 69.0086 23.5918C69.5261 22.9859 69.7849 22.1953 69.7849 21.2199C69.7849 20.2446 69.5261 19.454 69.0086 18.8481C68.5059 18.2422 67.8184 17.9393 66.946 17.9393C66.0885 17.9393 65.401 18.2422 64.8835 18.8481C64.3808 19.454 64.1294 20.2446 64.1294 21.2199C64.1294 22.1953 64.3808 22.9859 64.8835 23.5918C65.401 24.1976 66.0885 24.5006 66.946 24.5006Z" fill="#F6F6F6"/>
<path d="M84.5247 15.5231V26.9168H81.7524L81.4641 25.5424C81.0649 26.0153 80.5992 26.3848 80.0669 26.6508C79.5346 26.9168 78.884 27.0498 78.1152 27.0498C76.7845 27.0498 75.6978 26.6434 74.855 25.8306C74.0122 25.003 73.5908 23.6287 73.5908 21.7076V15.5231H76.718V21.3308C76.718 22.3652 76.8954 23.1484 77.2503 23.6804C77.6199 24.1976 78.1817 24.4563 78.9358 24.4563C79.7194 24.4563 80.3256 24.1681 80.7544 23.5918C81.1832 23.0006 81.3976 22.1805 81.3976 21.1313V15.5231H84.5247Z" fill="#F6F6F6"/>
<path d="M97.2113 11.4001V26.9168H94.4834L94.1729 25.3429C93.3006 26.4808 92.1177 27.0498 90.6244 27.0498C89.619 27.0498 88.7171 26.8133 87.9187 26.3404C87.1203 25.8528 86.4919 25.1656 86.0335 24.2789C85.59 23.3923 85.3682 22.3652 85.3682 21.1978C85.3682 20.0451 85.59 19.0328 86.0335 18.1609C86.4919 17.2743 87.1203 16.5945 87.9187 16.1216C88.7319 15.6339 89.6412 15.3901 90.6466 15.3901C92.1251 15.3901 93.271 15.9073 94.0842 16.9418V11.4001H97.2113ZM91.3563 24.5006C92.1991 24.5006 92.8718 24.205 93.3745 23.6139C93.8772 23.008 94.1286 22.2174 94.1286 21.2421C94.1286 20.252 93.8772 19.454 93.3745 18.8481C92.8718 18.2422 92.1991 17.9393 91.3563 17.9393C90.5135 17.9393 89.8334 18.2422 89.3159 18.8481C88.8132 19.454 88.5618 20.2446 88.5618 21.2199C88.5618 22.1953 88.8132 22.9859 89.3159 23.5918C89.8334 24.1976 90.5135 24.5006 91.3563 24.5006Z" fill="#F6F6F6"/>
<path d="M97.6173 11.4001L101.055 11.3779L103.916 22.7273L106.954 11.4001H109.948L112.898 22.7273L115.826 11.4001H119.197L114.894 26.9168H111.057L108.374 16.6093L105.757 26.9168H101.92L97.6173 11.4001Z" fill="#F6F6F6"/>
<path d="M129.632 24.2789V26.9168H128.035C126.601 26.9168 125.898 26.2961 125.928 25.0548C125.514 25.705 125.004 26.2 124.397 26.5399C123.791 26.8798 123.059 27.0498 122.202 27.0498C120.93 27.0498 119.903 26.7616 119.119 26.1853C118.35 25.5941 117.966 24.7666 117.966 23.7026C117.966 22.4908 118.409 21.5598 119.297 20.9096C120.198 20.2446 121.5 19.9121 123.2 19.9121H125.462V19.3579C125.462 18.8407 125.27 18.4343 124.885 18.1388C124.501 17.8284 123.984 17.6733 123.333 17.6733C122.756 17.6733 122.283 17.7989 121.914 18.0501C121.544 18.3013 121.322 18.6412 121.248 19.0698H118.232C118.335 17.9023 118.853 17.0009 119.784 16.3654C120.716 15.7152 121.951 15.3901 123.488 15.3901C125.1 15.3901 126.342 15.7448 127.214 16.4541C128.101 17.1634 128.545 18.1905 128.545 19.5353V23.5474C128.545 23.8282 128.604 24.0203 128.722 24.1238C128.841 24.2272 129.025 24.2789 129.277 24.2789H129.632ZM125.462 21.9958H123.178C122.527 21.9958 122.017 22.1288 121.647 22.3948C121.293 22.646 121.115 23.008 121.115 23.4809C121.115 23.8799 121.263 24.1976 121.559 24.4341C121.869 24.6705 122.283 24.7888 122.801 24.7888C123.614 24.7888 124.257 24.5597 124.73 24.1016C125.203 23.6287 125.447 23.0006 125.462 22.2174V21.9958Z" fill="#F6F6F6"/>
<path d="M130.686 18.1609H128.801V15.5231H130.686V12.3311H133.813V15.5231H136.408V18.1609H133.813V23.1484C133.813 23.5474 133.895 23.8356 134.057 24.0129C134.235 24.1903 134.523 24.2789 134.922 24.2789H136.541V26.9168H133.946C131.773 26.9168 130.686 25.8306 130.686 23.6583V18.1609Z" fill="#F6F6F6"/>
<path d="M147.755 22.5943C147.548 23.9834 146.957 25.0769 145.981 25.8749C145.02 26.6581 143.77 27.0498 142.233 27.0498C141.05 27.0498 140.015 26.8133 139.128 26.3404C138.241 25.8528 137.553 25.1656 137.065 24.2789C136.592 23.3923 136.356 22.3726 136.356 21.2199C136.356 20.0525 136.592 19.0328 137.065 18.1609C137.553 17.2743 138.241 16.5945 139.128 16.1216C140.03 15.6339 141.072 15.3901 142.255 15.3901C143.778 15.3901 145.02 15.7817 145.981 16.5649C146.942 17.3334 147.533 18.4048 147.755 19.7791H144.517C144.384 19.2175 144.118 18.7742 143.719 18.4491C143.32 18.1092 142.824 17.9393 142.233 17.9393C141.42 17.9393 140.769 18.2422 140.281 18.8481C139.793 19.454 139.549 20.2446 139.549 21.2199C139.549 22.1953 139.793 22.9859 140.281 23.5918C140.769 24.1976 141.42 24.5006 142.233 24.5006C142.839 24.5006 143.342 24.3306 143.741 23.9908C144.155 23.6509 144.421 23.1854 144.539 22.5943H147.755Z" fill="#F6F6F6"/>
<path d="M155.059 15.3901C156.404 15.3901 157.506 15.8039 158.363 16.6314C159.236 17.459 159.672 18.8259 159.672 20.7323V26.9168H156.545V20.8653C156.545 19.9195 156.352 19.2028 155.968 18.7151C155.584 18.2126 155.007 17.9614 154.238 17.9614C153.44 17.9614 152.811 18.2348 152.353 18.7816C151.909 19.3284 151.688 20.0894 151.688 21.0648V26.9168H148.561V11.4001H151.688V16.9196C152.53 15.8999 153.654 15.3901 155.059 15.3901Z" fill="#F6F6F6"/>
</svg>
