<svg width="181" height="34" viewBox="0 0 181 34" fill="none" xmlns="http://www.w3.org/2000/svg">
<path d="M52.76 25V9.16H55.059V22.833H62.231V25H52.76ZM69.4776 25.33C68.2896 25.33 67.2593 25.0623 66.3866 24.527C65.5139 23.9917 64.8393 23.2547 64.3626 22.316C63.8933 21.37 63.6586 20.281 63.6586 19.049C63.6586 17.8097 63.9006 16.7207 64.3846 15.782C64.8686 14.836 65.5469 14.1027 66.4196 13.582C67.2923 13.054 68.3116 12.79 69.4776 12.79C70.6656 12.79 71.6959 13.0577 72.5686 13.593C73.4413 14.1283 74.1159 14.8653 74.5926 15.804C75.0693 16.7427 75.3076 17.8243 75.3076 19.049C75.3076 20.2883 75.0656 21.381 74.5816 22.327C74.1049 23.2657 73.4303 24.0027 72.5576 24.538C71.6849 25.066 70.6583 25.33 69.4776 25.33ZM69.4776 23.163C70.6143 23.163 71.4613 22.7817 72.0186 22.019C72.5833 21.249 72.8656 20.259 72.8656 19.049C72.8656 17.8097 72.5796 16.8197 72.0076 16.079C71.4429 15.331 70.5996 14.957 69.4776 14.957C68.7076 14.957 68.0733 15.133 67.5746 15.485C67.0759 15.8297 66.7056 16.31 66.4636 16.926C66.2216 17.5347 66.1006 18.2423 66.1006 19.049C66.1006 20.2957 66.3866 21.293 66.9586 22.041C67.5306 22.789 68.3703 23.163 69.4776 23.163ZM82.4218 25.319C81.6005 25.319 80.9112 25.187 80.3538 24.923C79.7965 24.659 79.3418 24.3143 78.9898 23.889C78.6452 23.4563 78.3812 22.987 78.1978 22.481C78.0145 21.975 77.8898 21.48 77.8238 20.996C77.7578 20.512 77.7248 20.0867 77.7248 19.72V13.12H80.0568V18.961C80.0568 19.423 80.0935 19.8997 80.1668 20.391C80.2475 20.875 80.3942 21.326 80.6068 21.744C80.8268 22.162 81.1312 22.4993 81.5198 22.756C81.9158 23.0127 82.4292 23.141 83.0598 23.141C83.4705 23.141 83.8592 23.075 84.2258 22.943C84.5925 22.8037 84.9115 22.5837 85.1828 22.283C85.4615 21.9823 85.6778 21.5863 85.8318 21.095C85.9932 20.6037 86.0738 20.006 86.0738 19.302L87.5038 19.841C87.5038 20.919 87.3022 21.8723 86.8988 22.701C86.4955 23.5223 85.9162 24.164 85.1608 24.626C84.4055 25.088 83.4925 25.319 82.4218 25.319ZM86.3488 25V21.568H86.0738V13.12H88.3948V25H86.3488ZM100.038 25V19.159C100.038 18.697 99.9977 18.224 99.917 17.74C99.8437 17.2487 99.697 16.794 99.477 16.376C99.2643 15.958 98.96 15.6207 98.564 15.364C98.1753 15.1073 97.6657 14.979 97.035 14.979C96.6243 14.979 96.2357 15.0487 95.869 15.188C95.5023 15.32 95.1797 15.5363 94.901 15.837C94.6297 16.1377 94.4133 16.5337 94.252 17.025C94.098 17.5163 94.021 18.114 94.021 18.818L92.591 18.279C92.591 17.201 92.7927 16.2513 93.196 15.43C93.5993 14.6013 94.1787 13.956 94.934 13.494C95.6893 13.032 96.6023 12.801 97.673 12.801C98.4943 12.801 99.1837 12.933 99.741 13.197C100.298 13.461 100.749 13.8093 101.094 14.242C101.446 14.6673 101.714 15.133 101.897 15.639C102.08 16.145 102.205 16.64 102.271 17.124C102.337 17.608 102.37 18.0333 102.37 18.4V25H100.038ZM91.689 25V13.12H93.746V16.552H94.021V25H91.689ZM110.35 30.61C109.712 30.61 109.092 30.511 108.491 30.313C107.897 30.115 107.354 29.8217 106.863 29.433C106.372 29.0517 105.965 28.5787 105.642 28.014L107.765 26.936C108.022 27.442 108.388 27.8123 108.865 28.047C109.342 28.2817 109.844 28.399 110.372 28.399C111.025 28.399 111.582 28.2817 112.044 28.047C112.506 27.8197 112.854 27.475 113.089 27.013C113.331 26.551 113.448 25.979 113.441 25.297V21.975H113.716V13.12H115.751V25.319C115.751 25.6343 115.74 25.935 115.718 26.221C115.696 26.507 115.656 26.793 115.597 27.079C115.428 27.8783 115.106 28.5383 114.629 29.059C114.16 29.5797 113.558 29.9683 112.825 30.225C112.099 30.4817 111.274 30.61 110.35 30.61ZM110.174 25.33C109.067 25.33 108.11 25.055 107.303 24.505C106.504 23.955 105.884 23.207 105.444 22.261C105.011 21.3077 104.795 20.237 104.795 19.049C104.795 17.8537 105.015 16.7867 105.455 15.848C105.895 14.902 106.518 14.1577 107.325 13.615C108.139 13.065 109.103 12.79 110.218 12.79C111.34 12.79 112.282 13.065 113.045 13.615C113.815 14.1577 114.394 14.902 114.783 15.848C115.179 16.794 115.377 17.861 115.377 19.049C115.377 20.237 115.179 21.304 114.783 22.25C114.387 23.196 113.804 23.9477 113.034 24.505C112.264 25.055 111.311 25.33 110.174 25.33ZM110.493 23.251C111.248 23.251 111.864 23.0713 112.341 22.712C112.818 22.3527 113.166 21.8577 113.386 21.227C113.606 20.5963 113.716 19.8703 113.716 19.049C113.716 18.2277 113.602 17.5017 113.375 16.871C113.155 16.2403 112.81 15.749 112.341 15.397C111.879 15.045 111.289 14.869 110.57 14.869C109.807 14.869 109.18 15.056 108.689 15.43C108.198 15.804 107.831 16.3063 107.589 16.937C107.354 17.5677 107.237 18.2717 107.237 19.049C107.237 19.8337 107.354 20.545 107.589 21.183C107.831 21.8137 108.19 22.316 108.667 22.69C109.151 23.064 109.76 23.251 110.493 23.251ZM124.329 25.33C123.148 25.33 122.111 25.0733 121.216 24.56C120.329 24.0393 119.636 23.317 119.137 22.393C118.646 21.4617 118.4 20.3837 118.4 19.159C118.4 17.861 118.642 16.7353 119.126 15.782C119.617 14.8287 120.299 14.0917 121.172 13.571C122.045 13.0503 123.06 12.79 124.219 12.79C125.429 12.79 126.459 13.0723 127.31 13.637C128.161 14.1943 128.795 14.99 129.213 16.024C129.638 17.058 129.807 18.2863 129.719 19.709H127.42V18.873C127.405 17.4943 127.141 16.475 126.628 15.815C126.122 15.155 125.348 14.825 124.307 14.825C123.156 14.825 122.29 15.188 121.711 15.914C121.132 16.64 120.842 17.6887 120.842 19.06C120.842 20.3653 121.132 21.3773 121.711 22.096C122.29 22.8073 123.126 23.163 124.219 23.163C124.938 23.163 125.557 23.0017 126.078 22.679C126.606 22.349 127.017 21.8797 127.31 21.271L129.565 21.986C129.103 23.0493 128.403 23.8743 127.464 24.461C126.525 25.0403 125.48 25.33 124.329 25.33ZM120.094 19.709V17.916H128.575V19.709H120.094Z" fill="#F6F6F6"/>
<path d="M135.045 25V11.327H129.776V9.16H142.613V11.327H137.344V25H135.045ZM148.101 25.33C146.92 25.33 145.883 25.0733 144.988 24.56C144.101 24.0393 143.408 23.317 142.909 22.393C142.418 21.4617 142.172 20.3837 142.172 19.159C142.172 17.861 142.414 16.7353 142.898 15.782C143.389 14.8287 144.071 14.0917 144.944 13.571C145.817 13.0503 146.832 12.79 147.991 12.79C149.201 12.79 150.231 13.0723 151.082 13.637C151.933 14.1943 152.567 14.99 152.985 16.024C153.41 17.058 153.579 18.2863 153.491 19.709H151.192V18.873C151.177 17.4943 150.913 16.475 150.4 15.815C149.894 15.155 149.12 14.825 148.079 14.825C146.928 14.825 146.062 15.188 145.483 15.914C144.904 16.64 144.614 17.6887 144.614 19.06C144.614 20.3653 144.904 21.3773 145.483 22.096C146.062 22.8073 146.898 23.163 147.991 23.163C148.71 23.163 149.329 23.0017 149.85 22.679C150.378 22.349 150.789 21.8797 151.082 21.271L153.337 21.986C152.875 23.0493 152.175 23.8743 151.236 24.461C150.297 25.0403 149.252 25.33 148.101 25.33ZM143.866 19.709V17.916H152.347V19.709H143.866ZM161.261 25.33C160.044 25.33 159.01 25.0587 158.159 24.516C157.308 23.9733 156.656 23.229 156.201 22.283C155.754 21.337 155.526 20.2627 155.519 19.06C155.526 17.8353 155.761 16.7537 156.223 15.815C156.685 14.869 157.345 14.1283 158.203 13.593C159.061 13.0577 160.091 12.79 161.294 12.79C162.592 12.79 163.699 13.1127 164.616 13.758C165.54 14.4033 166.149 15.287 166.442 16.409L164.154 17.069C163.927 16.4017 163.553 15.8847 163.032 15.518C162.519 15.144 161.928 14.957 161.261 14.957C160.506 14.957 159.886 15.1367 159.402 15.496C158.918 15.848 158.559 16.332 158.324 16.948C158.089 17.564 157.968 18.268 157.961 19.06C157.968 20.2847 158.247 21.2747 158.797 22.03C159.354 22.7853 160.176 23.163 161.261 23.163C162.002 23.163 162.599 22.9943 163.054 22.657C163.516 22.3123 163.868 21.821 164.11 21.183L166.442 21.733C166.053 22.8917 165.412 23.7827 164.517 24.406C163.622 25.022 162.537 25.33 161.261 25.33ZM177.241 25V19.159C177.241 18.697 177.2 18.224 177.12 17.74C177.046 17.2487 176.9 16.794 176.68 16.376C176.467 15.958 176.163 15.6207 175.767 15.364C175.378 15.1073 174.868 14.979 174.238 14.979C173.827 14.979 173.438 15.0487 173.072 15.188C172.705 15.32 172.382 15.5363 172.104 15.837C171.832 16.1377 171.616 16.5337 171.455 17.025C171.301 17.5163 171.224 18.114 171.224 18.818L169.794 18.279C169.794 17.201 169.995 16.2513 170.399 15.43C170.802 14.6013 171.381 13.956 172.137 13.494C172.892 13.032 173.805 12.801 174.876 12.801C175.697 12.801 176.386 12.933 176.944 13.197C177.501 13.461 177.952 13.8093 178.297 14.242C178.649 14.6673 178.916 15.133 179.1 15.639C179.283 16.145 179.408 16.64 179.474 17.124C179.54 17.608 179.573 18.0333 179.573 18.4V25H177.241ZM168.892 25V9.16H170.949V17.707H171.224V25H168.892Z" fill="url(#paint0_linear_258_871)"/>
<g clip-path="url(#clip0_258_871)">
<path opacity="0.78" d="M4.89632 33.7572L9.31104 11.5762C9.95318 8.37858 12.8027 6.11191 16.0535 6.15239L29.2575 6.23334C33.1906 6.27382 36.2809 9.59287 36 13.5191L34.8361 27.7667C34.5552 31.3286 31.5853 34.0405 28.0134 34L4.89632 33.7572Z" fill="#AD8AF9"/>
<path opacity="0.72" d="M0 27.7262L4.25418 5.50476C4.89632 2.30714 7.66555 0 10.9565 0H24.1605C28.0936 0 31.2241 3.31905 30.9431 7.24524L29.8997 21.4929C29.6589 25.0143 26.689 27.7667 23.1171 27.7667L0 27.7262Z" fill="#6C29E1"/>
</g>
<defs>
<linearGradient id="paint0_linear_258_871" x1="133.479" y1="17.56" x2="180.935" y2="30.7657" gradientUnits="userSpaceOnUse">
<stop stop-color="#8E54E9"/>
<stop offset="1" stop-color="#4776E6"/>
</linearGradient>
<clipPath id="clip0_258_871">
<rect width="36" height="34" fill="white"/>
</clipPath>
</defs>
</svg>
